<svg width="38" height="38" fill="none" xmlns="http://www.w3.org/2000/svg"><path fill="#FF424A" d="M0 0h38v38H0z"/><mask id="a" style="mask-type:luminance" maskUnits="userSpaceOnUse" x="5" y="11" width="28" height="16"><path fill-rule="evenodd" clip-rule="evenodd" d="M5.925 11.277h26.569v15.674H5.925V11.277Z" fill="#fff"/></mask><g mask="url(#a)"><path fill-rule="evenodd" clip-rule="evenodd" d="M32.082 22.565c-.293.167-.605.27-.931.27-.742 0-1.17-.376-1.347-.984-.36-1.233-.024-3.468.1-4.93.167-1.978.247-2.754.279-3.168.075-.965-.3-2.04-1.391-2.032-1.014.007-2.337 1.231-2.921 2.463.142-1.578-.31-2.915-1.503-2.907-1.194.009-2.417 1.794-2.79 2.562.076-.718.117-1.019.15-1.407.032-.387.02-.668-.384-.707-.244-.025-.72.06-.996.107-.353.06-.467.314-.532.863-.047.397-.17 1.969-.292 3.483-.277.022-.73.11-1 .148-.51.072-.835.128-1.333.217.168-1.77.415-3.66.5-4.352.051-.42.011-.682-.42-.734-.245-.03-.988.078-1.219.116-.38.063-.524.389-.573.643-.194 1.027-.38 2.884-.504 4.767-.815.2-1.621.432-2.425.698.08-1.462.133-3.093.083-3.898-.072-1.16-.732-1.923-1.746-1.923-1.08 0-2.327.585-3.11 1.25-.51.435-.799.939-.799 1.338 0 .406.203.775.738.775.413-.57 1.496-1.568 2.1-1.568.545 0 .684.475.684.96 0 .398-.08 2.239-.158 3.794-2.075.933-4.417 2.713-4.417 5.497 0 1.803 1.093 2.986 2.66 2.986 2.05 0 3.124-1.869 3.46-3.911.171-1.047.303-2.405.393-3.58l.028-.01a43.509 43.509 0 0 1 2.413-.732c-.123 2.36-.186 4.5.442 6.05.53 1.31 1.656 2.255 3.42 2.242 1.213-.01 2.344-.5 2.85-.961a.701.701 0 0 0 .233-.512c-.011-.3-.2-.545-.45-.71-.502.287-1.058.53-1.847.56-.789.03-1.86-.403-2.3-1.854-.38-1.25-.27-3.715-.166-5.299.764-.152 1.535-.306 2.31-.39l.024-.037-.028.332c-.153 1.758-.354 4.486-.346 5.029.007.413.215.58.523.578.308-.003.858-.11 1.05-.176.157-.054.282-.126.368-.261.077-.122.118-.304.133-.544.039-.646.145-2.236.245-3.245.1-1.008.198-1.886.38-2.664.363-1.567 1.11-3.264 1.79-3.269.437-.003.451.825.328 1.963-.124 1.137-.457 5.3-.45 5.804.007.44.136.671.511.669.308-.002.89-.046 1.12-.139.145-.058.252-.111.326-.241.065-.115.104-.288.12-.576.037-.66.276-3.327.484-4.17.398-1.608 1.23-2.683 1.693-2.686.462-.003.318 1.142.197 2.448-.233 2.521-.472 5.152.155 6.438.371.761 1.039 1.476 2.622 1.476.593 0 1.276-.24 1.641-.602a.915.915 0 0 0 .236-.6.924.924 0 0 0-.41-.747ZM8.507 25.178c-.5 0-.862-.446-.862-1.357 0-1.542 1.252-2.853 2.583-3.607-.088.954-.22 1.98-.312 2.61-.173 1.167-.58 2.354-1.409 2.354Z" fill="#fff"/></g></svg>